<?xml version="1.0" standalone="no"?>
<svg viewBox="0 0 200 200" xmlns="http://www.w3.org/2000/svg">
  <path fill="#9EF0F0" d="M46.6,-70.5C59.7,-64.1,69,-50,65.6,-36.2C62.1,-22.5,45.8,-9.1,40.6,3.6C35.3,16.3,41,28.4,38.4,35.6C35.8,42.7,24.8,44.9,14.5,46.7C4.2,48.5,-5.4,49.9,-16.2,49.3C-26.9,48.8,-38.7,46.3,-46.4,39.2C-54.2,32.1,-57.8,20.5,-62.7,7.1C-67.6,-6.3,-73.7,-21.3,-68.4,-30.5C-63.1,-39.6,-46.3,-42.8,-33,-49.2C-19.7,-55.5,-9.9,-65,3.5,-70.4C16.8,-75.8,33.5,-77,46.6,-70.5Z" transform="translate(100 100)" />
</svg>
